<?xml version="1.0" encoding="utf-8"?>
<!-- Generator: Adobe Illustrator 24.0.1, SVG Export Plug-In . SVG Version: 6.00 Build 0)  -->
<svg version="1.1" id="Layer_1" xmlns="http://www.w3.org/2000/svg" xmlns:xlink="http://www.w3.org/1999/xlink" x="0px" y="0px"
	 viewBox="0 0 841.9 595.3" style="enable-background:new 0 0 841.9 595.3;" xml:space="preserve">
<style type="text/css">
	.st0{fill:none;}
	.st1{fill:#2F58A7;}
	.st2{fill:#C42227;}
	.st3{fill:#FFFFFF;}
</style>
<g>
	<polygon class="st0" points="107.9,488.7 108,488.6 107.9,488.6 	"/>
	<path class="st0" d="M135.6,457.8c2.3-1.5,4.1-3.5,5.4-6c1.3-2.5,2-5.1,2-7.9c0-4.9-1.4-8.7-4.3-11.4c-2.9-2.6-6.4-4-10.6-4h-20.3
		v31.5h20C130.8,460.1,133.3,459.3,135.6,457.8z"/>
	<path class="st1" d="M143.8,527.6c0.9,1.9,2.3,2.8,4.4,2.8h29.9c1,0,1.8-0.2,2.4-0.7c0.6-0.4,0.9-1,0.9-1.8c0-0.6-0.2-1.2-0.6-2
		l-22.2-44.4l-29.4,14.6L143.8,527.6z"/>
	<path class="st1" d="M74.2,526.7c0,2.5,1.2,3.7,3.7,3.7h26.2c2.5,0,3.7-1.2,3.7-3.7v-19.9l-33.6,16.7V526.7z"/>
	<path class="st2" d="M107.3,488.2h0.1l67.9-33.8c0.8-3.4,1.2-7.1,1.2-11c0-8.7-1.9-16.5-5.8-23.2c-3.9-6.8-9.3-12-16.3-15.8
		c-7-3.8-15-5.7-24-5.7h-53c-2.5,0-3.7,1.2-3.7,3.7V505L107.3,488.2L107.3,488.2z M107.3,428.2h20.3c4.2,0,7.7,1.3,10.6,4
		c2.9,2.6,4.3,6.4,4.3,11.4c0,2.8-0.7,5.5-2,7.9c-1.3,2.5-3.1,4.5-5.4,6c-2.3,1.5-4.9,2.2-7.8,2.2h-20V428.2z"/>
	<path class="st1" d="M233.3,445.9v-43c0-2.5-1.2-3.7-3.7-3.7h-26.2c-2.5,0-3.7,1.2-3.7,3.7v40.2l17-8.4L233.3,445.9z"/>
	<path class="st1" d="M199.7,461.2v65.5c0,2.5,1.2,3.7,3.7,3.7h26.2c2.5,0,3.7-1.2,3.7-3.7v-61.1l-17.9-12.2L199.7,461.2z"/>
	<path class="st1" d="M351.5,497.5c0.4-2.3,0.6-4.7,0.6-7.1c0-7.2-1.6-13.4-4.8-18.6s-7.7-9.5-13.5-13c-5.8-3.6-13.1-6.9-22-10
		c-1.4-0.5-2.4-0.8-3.1-1c-5-1.7-8.7-3.1-11.1-4.2c-2.4-1.1-4.3-2.3-5.7-3.8c-1.4-1.5-2.2-3.3-2.2-5.5c0-5.2,4.4-7.8,13.2-7.8
		c4.3,0,8.7,0.9,13.1,2.8c4.4,1.9,8.4,4.2,11.9,7c0.9,0.7,1.7,1,2.5,1c1,0,1.9-0.5,2.7-1.5l15.1-17c0.7-0.9,1.1-1.7,1.1-2.6
		c0-1-0.5-1.9-1.4-2.7c-6.2-5.3-13.2-9.5-21.1-12.6c-7.9-3.1-16.2-4.7-24.9-4.7c-10.3,0-18.9,1.7-26,5.2c-7,3.5-12.3,8.1-15.7,13.8
		c-3.4,5.7-5.1,12-5.1,18.8c0,11.4,4.1,20.4,12.2,27.1c8.1,6.7,17.4,11.6,27.8,14.6c6.3,1.9,11.1,3.6,14.3,5.1
		c3.3,1.6,5.5,3.1,6.6,4.7c1.1,1.6,1.7,3.4,1.7,5.5c0,3.1-1.3,5.6-3.9,7.4c-0.6,0.4-1.2,0.7-2,1l18.5,12.6L351.5,497.5z"/>
	<path class="st1" d="M252.3,504.7c-0.9,0.9-1.4,1.9-1.4,2.8c0,0.8,0.4,1.7,1.1,2.5c6.6,7.4,14.3,13.1,23.2,16.9
		c8.9,3.9,18.3,5.8,28.4,5.8c8.4,0,15.9-1.4,22.6-3.9l-57.9-39.3L252.3,504.7z"/>
	<path class="st1" d="M489.6,526l-48.1-72.2l42.4-50c0.7-0.9,1.1-1.7,1.1-2.4c0-0.7-0.3-1.2-0.8-1.6c-0.6-0.4-1.3-0.6-2.3-0.6h-10.1
		h-22.2c-1.9,0-3.4,0.7-4.6,2.1l-39.7,49.3v-47.7c0-2.5-1.2-3.7-3.7-3.7h-26.2c-2.5,0-3.7,1.2-3.7,3.7v81.5l22-15.2l-3-3.7l25-4.2
		l0.2,0l-9,24l-2.9-3.5l-32.4,22.4v22.5c0,2.5,1.2,3.7,3.7,3.7h26.2c2.5,0,3.7-1.2,3.7-3.7v-30.4l14.4-16.9l31.2,48.6
		c1,1.6,2.5,2.4,4.5,2.4h31.8c1,0,1.8-0.2,2.3-0.6c0.6-0.4,0.8-0.9,0.8-1.6C490.3,527.5,490.1,526.7,489.6,526z"/>
</g>
<g>
	<polygon class="st2" points="151.3,76.1 125.8,60.9 125.4,90.6 151.3,76.1 125.8,60.9 125.4,90.6 	"/>
	<path class="st1" d="M199,185.7h-21c-2,0-3-1.2-3-3.5V67.5c0-2.3,1-3.5,3-3.5h21c2,0,3,1.2,3,3.5v114.7
		C202,184.6,201,185.7,199,185.7z"/>
	<path class="st1" d="M235.6,180.6c-7.1-3.5-13.3-8.7-18.6-15.4c-0.6-0.8-0.9-1.6-0.9-2.3c0-0.9,0.4-1.7,1.1-2.6l13.3-14.3
		c0.6-0.7,1.3-1.1,2-1.1c0.8,0,1.5,0.4,2.2,1.3c3.2,3.7,6.8,6.6,10.7,8.5c3.9,1.9,8,2.9,12.3,2.9s7.4-0.8,9.5-2.5
		c2.1-1.6,3.1-3.9,3.1-6.7c0-1.9-0.5-3.6-1.4-5c-0.9-1.4-2.7-2.8-5.3-4.3c-2.6-1.4-6.5-3-11.5-4.7c-8.3-2.8-15.8-7.2-22.3-13.3
		c-6.5-6.1-9.8-14.4-9.8-24.8c0-6.2,1.4-11.9,4.1-17.1c2.7-5.2,6.9-9.4,12.6-12.6c5.6-3.2,12.6-4.7,20.8-4.7
		c6.9,0,13.6,1.4,19.9,4.3c6.3,2.8,12,6.7,16.9,11.5c0.7,0.7,1.1,1.6,1.1,2.5c0,0.8-0.3,1.6-0.9,2.4l-12.1,15.5
		c-0.6,0.9-1.4,1.4-2.2,1.4c-0.6,0-1.3-0.3-2-0.9c-2.8-2.5-6-4.6-9.5-6.3c-3.5-1.7-7-2.6-10.5-2.6c-7,0-10.6,2.4-10.6,7.1
		c0,2,0.6,3.7,1.7,5c1.1,1.4,2.7,2.5,4.6,3.5c1.9,1,4.9,2.2,8.9,3.8c0.5,0.2,1.4,0.5,2.5,0.9c7.1,2.8,13,5.9,17.6,9.1
		c4.6,3.2,8.2,7.2,10.8,11.9c2.5,4.7,3.8,10.3,3.8,16.9c0,7.6-1.6,14.3-4.9,20.1c-3.2,5.8-7.8,10.2-13.8,13.4
		c-5.9,3.2-12.8,4.7-20.7,4.7C250.3,185.9,242.8,184.1,235.6,180.6z"/>
	<path class="st1" d="M408,183.7c0,0.6-0.2,1.1-0.7,1.5c-0.4,0.4-1.1,0.6-1.9,0.6H380c-1.6,0-2.8-0.8-3.6-2.3l-25-45l-11.5,15.7
		v28.1c0,2.3-1,3.5-3,3.5h-21c-2,0-3-1.2-3-3.5V67.5c0-2.3,1-3.5,3-3.5h21c2,0,3,1.2,3,3.5v44.2l31.8-45.7c0.9-1.3,2.2-2,3.7-2h25.8
		c0.8,0,1.4,0.2,1.9,0.5s0.7,0.8,0.7,1.5c0,0.7-0.3,1.4-0.9,2.3l-34,46.3l38.6,66.9C407.8,182.3,408,183,408,183.7z"/>
	<path class="st3" d="M110.3,124.6l-0.1-2.1C110,122.6,110.1,123.4,110.3,124.6z"/>
	<polygon class="st3" points="110.2,122.6 110.2,122.6 110.2,122.6 	"/>
	<path class="st1" d="M119.9,87.5l0.1-23.7H76.6c-2,0-3,1-3,3v116.1c0,2,1,3,3,3h21c2,0,3-1,3-3v-43.7v-3.7v-22.8v-3.4V87.4"/>
	<path class="st1" d="M140.4,128.4c4.9-3,8.8-6.9,11.5-11.6c4-6.9,5.4-15.5,4.5-23.4c-0.3-2.2-0.6-4.5-1.5-6.5
		c-0.9-2-2.2-3.7-3.6-5.4c0,0-23.2,13.4-23.2,13.4c-0.1,0,0.9,7,0.9,7.6c-0.3,9.6-10.1,17.5-18.7,20l16.5,38.7l25.6-9.3L140.4,128.4
		z"/>
	<polygon class="st2" points="154.8,157 129.2,166.3 128,166.8 150.7,185.9 153.7,169 155.5,158.5 155.9,156.6 	"/>
</g>
<g>
	<polygon class="st2" points="518.6,234.3 492.8,219.2 492.6,249.1 518.6,234.3 492.8,219.2 492.6,249.1 	"/>
	<path class="st1" d="M567.7,344.5l-21.2,0.2c-2,0-3-1.1-3-3.5l-0.9-115.8c0-2.3,1-3.5,3-3.5l21.2-0.2c2,0,3,1.1,3,3.5l0.9,115.8
		C570.7,343.3,569.7,344.5,567.7,344.5z"/>
	<path class="st1" d="M604.6,339c-7.2-3.5-13.5-8.6-18.9-15.4c-0.6-0.8-0.9-1.6-0.9-2.3c0-0.9,0.4-1.7,1.1-2.6l13.3-14.6
		c0.6-0.7,1.3-1.1,2-1.1c0.8,0,1.5,0.4,2.2,1.3c3.3,3.8,6.9,6.6,10.9,8.5c4,1.9,8.1,2.8,12.4,2.8c4.3,0,7.5-0.9,9.6-2.6
		c2.1-1.7,3.1-4,3.1-6.8c0-1.9-0.5-3.6-1.4-5.1c-0.9-1.4-2.7-2.8-5.4-4.3c-2.7-1.4-6.5-3-11.6-4.6c-8.4-2.7-16-7.2-22.6-13.3
		c-6.6-6.1-10-14.4-10.1-24.9c0-6.2,1.3-12,4-17.3c2.7-5.3,6.9-9.6,12.6-12.8c5.7-3.2,12.7-4.9,21-4.9c7-0.1,13.7,1.3,20.1,4.1
		c6.4,2.8,12.1,6.6,17.2,11.5c0.8,0.7,1.1,1.6,1.2,2.5c0,0.8-0.3,1.6-0.9,2.4l-12.1,15.8c-0.6,0.9-1.4,1.4-2.2,1.4
		c-0.7,0-1.3-0.3-2-0.9c-2.8-2.5-6.1-4.6-9.6-6.3c-3.6-1.7-7.1-2.6-10.6-2.5c-7.1,0.1-10.6,2.5-10.6,7.2c0,2,0.6,3.7,1.8,5.1
		c1.2,1.4,2.7,2.5,4.7,3.5c1.9,1,4.9,2.2,9,3.8c0.6,0.2,1.4,0.5,2.5,0.9c7.2,2.8,13.1,5.8,17.8,9.1c4.7,3.2,8.4,7.2,11,11.9
		c2.6,4.7,3.9,10.4,4,17c0.1,7.7-1.5,14.5-4.7,20.3c-3.2,5.8-7.8,10.4-13.8,13.6c-6,3.2-12.9,4.9-20.8,4.9
		C619.5,344.2,611.8,342.5,604.6,339z"/>
	<path class="st1" d="M778.5,340.7c0,0.6-0.2,1.2-0.7,1.5c-0.5,0.4-1.1,0.6-1.9,0.6l-25.7,0.2c-1.6,0-2.8-0.7-3.6-2.2l-25.6-45.2
		l-11.5,15.9l0.2,28.4c0,2.3-1,3.5-3,3.5l-21.2,0.2c-2,0-3-1.1-3-3.5l-0.9-115.8c0-2.3,1-3.5,3-3.5l21.2-0.2c2,0,3,1.1,3,3.5
		l0.4,44.6l31.7-46.4c0.9-1.3,2.2-2,3.7-2l26.1-0.2c0.8,0,1.4,0.2,1.9,0.5c0.5,0.3,0.7,0.8,0.7,1.5c0,0.7-0.3,1.5-0.9,2.3l-33.9,47
		l39.5,67.2C778.3,339.3,778.5,340,778.5,340.7z"/>
	<path class="st3" d="M477.7,283.6l-0.1-2.1C477.4,281.5,477.5,282.4,477.7,283.6z"/>
	<polygon class="st3" points="477.6,281.5 477.6,281.5 477.6,281.5 	"/>
	<path class="st1" d="M487,246l0-24l-43.8,0.3c-2,0-3,1-3,3l0.9,117.2c0,2,1,3,3,3l21.2-0.2c2,0,3-1,3-3l-0.4-44.1l0-3.7l-0.2-23
		l0-3.4l-0.2-22"/>
	<path class="st2" d="M508.1,287.1c5-3.1,8.8-7,11.5-11.8c4-7,5.3-15.7,4.3-23.6c-0.3-2.2-0.7-4.5-1.6-6.6c-0.9-2-2.3-3.8-3.7-5.4
		c0,0-23.3,13.7-23.3,13.7c-0.1,0,1,7.1,1,7.7c-0.3,9.7-10.1,17.7-18.8,20.3l17,38.9l25.8-9.6L508.1,287.1z"/>
	<polygon class="st2" points="522.8,315.9 497,325.5 495.8,325.9 518.9,345 521.8,328 523.6,317.4 523.9,315.5 	"/>
</g>
</svg>
