<svg width="429" height="86" viewBox="0 0 429 86" fill="none" xmlns="http://www.w3.org/2000/svg">
<path d="M0 47.6701L47.4451 67.1654C50.1922 68.2942 53.3531 67.2644 55.0422 64.8216C61.9196 54.875 80.082 32.0322 94.8443 43.8179C113.453 58.6742 114.538 -1.87362 136.264 2.55097C147.069 4.75148 149.345 32.9479 159.074 56.4735C166.068 73.3857 169.255 82.2256 177.814 83.7474C179.608 84.0665 181.347 83.1571 182.486 81.7339L218.986 36.1107C219.739 35.1698 221.074 34.9355 222.102 35.5638V35.5638C223.132 36.1931 224.469 35.9569 225.221 35.0129L246.12 8.77653C248.731 5.49857 253.813 5.8392 255.963 9.43631L272.73 37.4856C274.317 40.1405 277.662 41.1539 280.456 39.8262L287.912 36.2821C290.205 35.1924 292.935 35.6635 294.73 37.4584L327.511 70.2375C329.692 72.419 333.173 72.5905 335.558 70.634L374.137 38.9942C375.879 37.5649 378.276 37.2329 380.342 38.1345L385.458 40.3675C387.902 41.4343 390.757 40.7599 392.465 38.7121L417.115 9.16527C419.173 6.69775 422.81 6.29015 425.364 8.2408L428 10.2542" stroke="url(#paint0_linear_246_1884)" stroke-opacity="0.5" stroke-width="3"/>
<defs>
<linearGradient id="paint0_linear_246_1884" x1="214" y1="2" x2="214" y2="83.9856" gradientUnits="userSpaceOnUse">
<stop stop-color="white"/>
<stop offset="1" stop-color="white"/>
</linearGradient>
</defs>
</svg>
