<svg width="25" height="25" viewBox="0 0 25 25" fill="none" xmlns="http://www.w3.org/2000/svg">
<path d="M18.12 11.2496C17.69 11.2496 17.35 10.8996 17.35 10.4796C17.35 10.1096 16.98 9.33961 16.36 8.66961C15.75 8.01961 15.08 7.63961 14.52 7.63961C14.09 7.63961 13.75 7.28961 13.75 6.86961C13.75 6.44961 14.1 6.09961 14.52 6.09961C15.52 6.09961 16.57 6.63961 17.49 7.60961C18.35 8.51961 18.9 9.64961 18.9 10.4696C18.9 10.8996 18.55 11.2496 18.12 11.2496Z" fill="#FCBD68"/>
<path d="M21.73 11.25C21.3 11.25 20.96 10.9 20.96 10.48C20.96 6.93 18.07 4.05 14.53 4.05C14.1 4.05 13.76 3.7 13.76 3.28C13.76 2.86 14.1 2.5 14.52 2.5C18.92 2.5 22.5 6.08 22.5 10.48C22.5 10.9 22.15 11.25 21.73 11.25Z" fill="#FCBD68"/>
<path opacity="0.4" d="M12.29 14.71L9.02 17.98C8.66 17.66 8.31 17.33 7.97 16.99C6.94 15.95 6.01 14.86 5.18 13.72C4.36 12.58 3.7 11.44 3.22 10.31C2.74 9.17 2.5 8.08 2.5 7.04C2.5 6.36 2.62 5.71 2.86 5.11C3.1 4.5 3.48 3.94 4.01 3.44C4.65 2.81 5.35 2.5 6.09 2.5C6.37 2.5 6.65 2.56 6.9 2.68C7.16 2.8 7.39 2.98 7.57 3.24L9.89 6.51C10.07 6.76 10.2 6.99 10.29 7.21C10.38 7.42 10.43 7.63 10.43 7.82C10.43 8.06 10.36 8.3 10.22 8.53C10.09 8.76 9.9 9 9.66 9.24L8.9 10.03C8.79 10.14 8.74 10.27 8.74 10.43C8.74 10.51 8.75 10.58 8.77 10.66C8.8 10.74 8.83 10.8 8.85 10.86C9.03 11.19 9.34 11.62 9.78 12.14C10.23 12.66 10.71 13.19 11.23 13.72C11.59 14.07 11.94 14.41 12.29 14.71Z" fill="#FCBD68"/>
<path d="M22.47 18.83C22.47 19.11 22.42 19.4 22.32 19.68C22.29 19.76 22.26 19.84 22.22 19.92C22.05 20.28 21.83 20.62 21.54 20.94C21.05 21.48 20.51 21.87 19.9 22.12C19.89 22.12 19.88 22.13 19.87 22.13C19.28 22.37 18.64 22.5 17.95 22.5C16.93 22.5 15.84 22.26 14.69 21.77C13.54 21.28 12.39 20.62 11.25 19.79C10.86 19.5 10.47 19.21 10.1 18.9L13.37 15.63C13.65 15.84 13.9 16 14.11 16.11C14.16 16.13 14.22 16.16 14.29 16.19C14.37 16.22 14.45 16.23 14.54 16.23C14.71 16.23 14.84 16.17 14.95 16.06L15.71 15.31C15.96 15.06 16.2 14.87 16.43 14.75C16.66 14.61 16.89 14.54 17.14 14.54C17.33 14.54 17.53 14.58 17.75 14.67C17.97 14.76 18.2 14.89 18.45 15.06L21.76 17.41C22.02 17.59 22.2 17.8 22.31 18.05C22.41 18.3 22.47 18.55 22.47 18.83Z" fill="#FCBD68"/>
</svg>
