<svg width="20" height="20" viewBox="0 0 20 20" fill="none" xmlns="http://www.w3.org/2000/svg">
<path d="M10 17.0833H5.83335C3.33335 17.0833 1.66669 15.8333 1.66669 12.9167V7.08334C1.66669 4.16667 3.33335 2.91667 5.83335 2.91667H14.1667C16.6667 2.91667 18.3334 4.16667 18.3334 7.08334V9.58334" stroke="#FCBD68" stroke-width="1.5" stroke-miterlimit="10" stroke-linecap="round" stroke-linejoin="round"/>
<path opacity="0.4" d="M14.1666 7.5L11.5583 9.58333C10.7 10.2667 9.29164 10.2667 8.43331 9.58333L5.83331 7.5" stroke="#FCBD68" stroke-width="1.5" stroke-miterlimit="10" stroke-linecap="round" stroke-linejoin="round"/>
<g opacity="0.4">
<path d="M16.0083 12.3083L13.0584 15.2583C12.9417 15.375 12.8333 15.5917 12.8083 15.75L12.65 16.875C12.5917 17.2833 12.875 17.5667 13.2833 17.5084L14.4084 17.35C14.5667 17.325 14.7917 17.2167 14.9 17.1L17.85 14.15C18.3584 13.6417 18.6 13.05 17.85 12.3C17.1084 11.5584 16.5167 11.8 16.0083 12.3083Z" stroke="#FCBD68" stroke-width="1.5" stroke-miterlimit="10" stroke-linecap="round" stroke-linejoin="round"/>
<path d="M15.5834 12.7333C15.8334 13.6333 16.5334 14.3333 17.4334 14.5833" stroke="#FCBD68" stroke-width="1.5" stroke-miterlimit="10" stroke-linecap="round" stroke-linejoin="round"/>
</g>
</svg>
