<svg width="20" height="23" viewBox="0 0 20 23" fill="none" xmlns="http://www.w3.org/2000/svg">
<path d="M10.4064 12.6954C9.83446 14.5531 11.7334 16.6786 5.78696 21.3279C5.19806 21.7884 4.47919 21.1312 5.05333 20.6644C7.15181 18.9584 9.3434 16.9631 9.20002 14.4956C9.14325 13.5188 9.15126 11.6225 10.2787 11.5294C12.1811 11.3722 13.6656 17.4413 7.44216 22.1269C7.10487 22.3808 6.78957 22.387 6.56712 22.1624C6.34472 21.938 6.40409 21.684 6.75016 21.4268C8.43239 20.1766 9.70663 18.6857 10.3888 16.8549C11.1922 14.6984 10.7837 13.1356 10.4064 12.6954Z" fill="#FCBD68"/>
<path d="M16.4602 11.121C16.5592 11.4577 16.4043 11.7021 16.0754 11.7655C15.7367 11.8308 15.4979 11.6777 15.3926 11.2918C14.1102 6.59653 8.01138 4.88126 6.21333 8.24443C5.56147 9.46365 5.77929 10.1977 5.00184 10.078C4.6907 10.0301 4.53484 9.83109 4.60102 9.57971C4.96134 8.21027 5.47517 6.91245 6.99317 6.12965C10.0347 4.56116 15.0555 6.34243 16.4602 11.121Z" fill="#FCBD68"/>
<path d="M15.305 14.5534C15.2163 18.0558 13.9929 20.1823 11.9677 22.0186C11.4251 22.5105 10.5727 21.9203 11.219 21.3637C12.2552 20.4712 13.0457 19.4385 13.5 18.2453C14.3414 16.0349 14.6021 13.7996 13.6057 11.5681C12.6183 9.35688 11.4435 9.31831 12.1181 8.76806C12.6929 8.29926 13.2979 9.17327 13.7232 9.74654C14.8121 11.214 15.3344 12.8157 15.305 14.5534Z" fill="#FCBD68"/>
<path d="M11.536 8.11038C11.5452 8.51038 11.2081 8.72364 10.8241 8.61129C10.2884 8.45453 9.74984 8.3599 9.1899 8.48432C5.52237 9.29928 8.97961 13.9901 3.22416 18.4843C2.70372 18.8907 1.88119 18.322 2.51974 17.7966C3.44692 17.0339 4.27865 16.2112 4.8703 15.2215C5.51535 14.1426 5.74471 12.9725 5.95203 11.794C6.09874 10.9603 6.17625 10.1125 6.57415 9.32519C7.34652 7.79678 9.33905 7.10296 11.1314 7.73515C11.3694 7.81909 11.5274 7.95051 11.536 8.11038Z" fill="#FCBD68"/>
<path d="M1.02724 12.8347C2.16142 11.8028 2.23628 10.4703 2.52741 9.1922C3.02538 7.00582 3.92958 5.25229 6.3797 4.28369C6.78166 4.1248 7.09716 4.19325 7.23612 4.46214C7.36806 4.71736 7.24184 4.94314 6.84721 5.10047C4.95148 5.85642 4.11351 7.25012 3.68837 8.90385C3.47018 9.75243 3.38009 10.6219 3.10591 11.4608C2.88138 12.1478 2.51228 12.7671 1.94911 13.2975C1.30443 13.9045 0.665309 13.164 1.02724 12.8347Z" fill="#FCBD68"/>
<path d="M13.5735 14.9733C13.5533 15.3561 13.3433 15.5584 13.0013 15.538C11.8472 15.4691 13.3804 13.5935 11.2628 11.03C10.7832 10.4495 10.0375 10.1507 9.42581 10.7312C8.23454 11.8617 9.12465 13.4431 8.06236 13.3931C7.7481 13.3783 7.56069 13.209 7.5701 12.9537C7.72289 8.81489 11.5853 8.10049 13.216 12.3276C13.5297 13.141 13.6186 14.1185 13.5735 14.9733Z" fill="#FCBD68"/>
<path d="M13.8497 2.65125C14.2435 2.80591 14.3757 3.03103 14.2479 3.28967C14.1108 3.56734 13.8078 3.63881 13.4043 3.48517C10.0292 2.20004 7.25166 2.58383 4.63373 4.29496C4.36179 4.47274 4.08554 4.48494 3.85742 4.25542C3.62566 4.02224 3.69226 3.78288 3.94808 3.59455C6.38141 1.80317 9.99342 1.13677 13.8497 2.65125Z" fill="#FCBD68"/>
<path d="M18.73 16.6045C18.6729 16.8985 18.4904 17.0575 18.1398 17.0366C17.8231 17.0177 17.6446 16.7935 17.6912 16.4645C18.1242 13.4077 18.0373 12.1799 16.6082 8.84936C16.4607 8.50557 16.533 8.26269 16.8553 8.16129C17.3137 8.01709 17.5412 8.29903 17.6957 8.69987C18.6926 11.286 19.4512 12.8901 18.73 16.6045Z" fill="#FCBD68"/>
<path d="M8.7048 4.63787C8.19955 4.70129 7.90733 4.5745 7.86247 4.26691C7.66799 2.9327 14.2928 3.79415 16.6166 6.96872C16.7984 7.21717 16.7797 7.45672 16.4982 7.63088C15.6864 8.1329 15.7375 6.78347 13.3521 5.63688C12.0163 4.99485 10.2207 4.44758 8.7048 4.63787Z" fill="#FCBD68"/>
<path d="M19.5963 9.81221C19.278 9.86904 19.0509 9.75325 18.9629 9.47746C17.4613 4.76908 14.8848 4.57982 14.7591 3.97533C14.6783 3.58664 15.1213 3.23399 15.6654 3.54478C18.0689 4.91755 19.2426 6.76594 19.9631 9.1289C20.0592 9.44433 19.9781 9.74403 19.5963 9.81221Z" fill="#FCBD68"/>
<path d="M16.0938 19.3312C15.9769 19.597 15.7473 19.738 15.4053 19.6481C14.4907 19.408 15.6587 18.4148 15.9882 16.156C16.1859 14.8011 15.8039 13.1352 15.7939 13.0319C15.7246 12.3097 16.7546 12.2606 16.8612 12.9C17.2215 15.0633 17.4213 16.3151 16.0938 19.3312Z" fill="#FCBD68"/>
<path d="M8.77495 21.8123C10.4583 20.4002 11.5616 18.6438 12.1987 16.6671C12.309 16.325 12.5718 16.1562 12.8802 16.2523C13.222 16.3587 13.3227 16.5782 13.2294 16.8823C12.5768 19.0095 11.3943 20.879 9.56348 22.4344C8.95036 22.9553 8.2187 22.2789 8.77495 21.8123Z" fill="#FCBD68"/>
<path d="M11.2737 0.0221255C13.7805 0.326642 16.0583 1.19797 17.9072 2.82316C18.1497 3.03634 18.1648 3.27272 17.9453 3.49427C17.0946 4.35322 16.4966 1.55936 11.0705 0.932601C10.7311 0.893412 10.5314 0.741466 10.5366 0.44265C10.5413 0.172068 10.8155 0.00195203 11.2737 0.0221255Z" fill="#FCBD68"/>
<path d="M8.38062 14.6289C8.10077 16.8843 6.38185 18.2717 4.49282 20.0535C4.25342 20.2794 3.98179 20.3437 3.68703 20.142C2.64367 19.4284 6.83844 17.7301 7.30762 14.6123C7.35981 14.2654 7.52612 14.0424 7.9312 14.0866C8.28481 14.1252 8.4115 14.3366 8.38062 14.6289Z" fill="#FCBD68"/>
<path d="M0.00698307 10.4409C0.507715 8.69362 0.761669 6.81001 2.10167 5.2469C2.49313 4.79026 2.90444 4.35161 3.35833 4.75138C3.5734 4.94078 3.58156 5.17289 3.37549 5.36313C2.11279 6.52852 1.74728 8.01191 1.35717 9.48849C1.24998 9.89414 1.14845 10.3017 1.01567 10.7013C0.932756 10.9509 0.698661 11.0722 0.400988 11.0103C0.109968 10.9497 -0.03445 10.7681 0.00698307 10.4409Z" fill="#FCBD68"/>
<path d="M1.20692 16.0981C1.11236 15.9029 1.17417 15.7197 1.36164 15.5816C1.57197 15.4266 1.80284 15.2914 2.00705 15.1311C3.56404 13.9086 3.82979 12.0277 4.13609 11.1798C4.35927 10.5621 5.33152 10.8429 5.18268 11.3856C4.87139 12.5205 4.53821 13.6518 3.82381 14.664C3.2294 15.5062 1.64507 17.0028 1.20692 16.0981Z" fill="#FCBD68"/>
<path d="M9.93717 0.471464C9.89376 0.793259 9.63695 0.903745 9.27419 0.910915C7.46122 0.946853 5.64243 1.5399 4.10233 2.49032C3.72741 2.72171 3.44148 2.71477 3.22558 2.47718C3.01103 2.24111 3.08834 1.98554 3.45765 1.75847C5.20127 0.68638 7.12081 0.0383368 9.28901 0.000216558C9.70375 -0.00704231 9.94409 0.168551 9.93717 0.471464Z" fill="#FCBD68"/>
</svg>
