<svg width="25" height="24" viewBox="0 0 25 24" fill="none" xmlns="http://www.w3.org/2000/svg">
<path d="M22.17 6.9499C21.53 4.7799 19.72 2.9699 17.55 2.3299C15.9 1.8499 14.76 1.8899 13.97 2.4799C13.02 3.1899 12.91 4.4699 12.91 5.3799V7.8699C12.91 10.3299 14.03 11.5799 16.23 11.5799H19.1C20 11.5799 21.29 11.4699 22 10.5199C22.61 9.7399 22.66 8.5999 22.17 6.9499Z" fill="#8294AE"/>
<path opacity="0.4" d="M19.41 13.3599C19.15 13.0599 18.77 12.8899 18.38 12.8899H14.8C13.04 12.8899 11.61 11.4599 11.61 9.69991V6.11991C11.61 5.72991 11.44 5.34991 11.14 5.08991C10.85 4.82991 10.45 4.70991 10.07 4.75991C7.71999 5.05991 5.55999 6.34991 4.14999 8.28991C2.72999 10.2399 2.20999 12.6199 2.65999 14.9999C3.30999 18.4399 6.05999 21.1899 9.50999 21.8399C10.06 21.9499 10.61 21.9999 11.16 21.9999C12.97 21.9999 14.72 21.4399 16.21 20.3499C18.15 18.9399 19.44 16.7799 19.74 14.4299C19.79 14.0399 19.67 13.6499 19.41 13.3599Z" fill="#8294AE"/>
</svg>
