<svg width="25" height="25" viewBox="0 0 25 25" fill="none" xmlns="http://www.w3.org/2000/svg">
<path opacity="0.4" d="M8.15 21.4098C8.12 21.4098 8.08 21.4298 8.05 21.4298C6.11 20.4698 4.53 18.8798 3.56 16.9398C3.56 16.9098 3.58 16.8698 3.58 16.8398C4.8 17.1998 6.06 17.4698 7.31 17.6798C7.53 18.9398 7.79 20.1898 8.15 21.4098Z" fill="#FCBD68"/>
<path opacity="0.4" d="M21.44 16.9498C20.45 18.9398 18.8 20.5498 16.79 21.5198C17.17 20.2498 17.49 18.9698 17.7 17.6798C18.96 17.4698 20.2 17.1998 21.42 16.8398C21.41 16.8798 21.44 16.9198 21.44 16.9498Z" fill="#FCBD68"/>
<path opacity="0.4" d="M21.52 8.21047C20.26 7.83047 18.99 7.52047 17.7 7.30047C17.49 6.01047 17.18 4.73047 16.79 3.48047C18.86 4.47047 20.53 6.14047 21.52 8.21047Z" fill="#FCBD68"/>
<path opacity="0.4" d="M8.14998 3.58957C7.78998 4.80957 7.52998 6.04957 7.31998 7.30957C6.02998 7.50957 4.74998 7.82957 3.47998 8.20957C4.44998 6.19957 6.05998 4.54957 8.04998 3.55957C8.07998 3.55957 8.11998 3.58957 8.14998 3.58957Z" fill="#FCBD68"/>
<path d="M15.99 7.09C13.67 6.83 11.33 6.83 9.01001 7.09C9.26001 5.72 9.58001 4.35 10.03 3.03C10.05 2.95 10.04 2.89 10.05 2.81C10.84 2.62 11.65 2.5 12.5 2.5C13.34 2.5 14.16 2.62 14.94 2.81C14.95 2.89 14.95 2.95 14.97 3.03C15.42 4.36 15.74 5.72 15.99 7.09Z" fill="#FCBD68"/>
<path d="M7.09 15.9898C5.71 15.7398 4.35 15.4198 3.03 14.9698C2.95 14.9498 2.89 14.9598 2.81 14.9498C2.62 14.1598 2.5 13.3498 2.5 12.4998C2.5 11.6598 2.62 10.8398 2.81 10.0598C2.89 10.0498 2.95 10.0498 3.03 10.0298C4.36 9.58977 5.71 9.25977 7.09 9.00977C6.84 11.3298 6.84 13.6698 7.09 15.9898Z" fill="#FCBD68"/>
<path d="M22.5 12.4998C22.5 13.3498 22.38 14.1598 22.19 14.9498C22.11 14.9598 22.05 14.9498 21.97 14.9698C20.64 15.4098 19.28 15.7398 17.91 15.9898C18.17 13.6698 18.17 11.3298 17.91 9.00977C19.28 9.25977 20.65 9.57977 21.97 10.0298C22.05 10.0498 22.11 10.0598 22.19 10.0598C22.38 10.8498 22.5 11.6598 22.5 12.4998Z" fill="#FCBD68"/>
<path d="M15.99 17.9102C15.74 19.2902 15.42 20.6502 14.97 21.9702C14.95 22.0502 14.95 22.1102 14.94 22.1902C14.16 22.3802 13.34 22.5002 12.5 22.5002C11.65 22.5002 10.84 22.3802 10.05 22.1902C10.04 22.1102 10.05 22.0502 10.03 21.9702C9.59001 20.6402 9.26001 19.2902 9.01001 17.9102C10.17 18.0402 11.33 18.1302 12.5 18.1302C13.67 18.1302 14.84 18.0402 15.99 17.9102Z" fill="#FCBD68"/>
<path d="M16.2633 16.2633C13.7622 16.5789 11.2378 16.5789 8.73667 16.2633C8.42111 13.7622 8.42111 11.2378 8.73667 8.73667C11.2378 8.42111 13.7622 8.42111 16.2633 8.73667C16.5789 11.2378 16.5789 13.7622 16.2633 16.2633Z" fill="#FCBD68"/>
</svg>
