<svg width="25" height="25" viewBox="0 0 25 25" fill="none" xmlns="http://www.w3.org/2000/svg">
<path opacity="0.4" d="M11.46 2.61037L5.95999 4.67037C4.90999 5.07037 4.04999 6.31037 4.04999 7.44037V15.5404C4.04999 16.3504 4.57999 17.4204 5.22999 17.9004L10.73 22.0104C11.7 22.7404 13.29 22.7404 14.26 22.0104L19.76 17.9004C20.41 17.4104 20.94 16.3504 20.94 15.5404V7.44037C20.94 6.32037 20.08 5.07037 19.03 4.68037L13.53 2.62037C12.97 2.40037 12.03 2.40037 11.46 2.61037Z" fill="#FCBD68"/>
<path d="M15 11C15 9.62 13.88 8.5 12.5 8.5C11.12 8.5 10 9.62 10 11C10 12.12 10.74 13.05 11.75 13.37V16C11.75 16.41 12.09 16.75 12.5 16.75C12.91 16.75 13.25 16.41 13.25 16V13.37C14.26 13.05 15 12.12 15 11Z" fill="#FCBD68"/>
</svg>
