<svg width="25" height="24" viewBox="0 0 25 24" fill="none" xmlns="http://www.w3.org/2000/svg">
<path opacity="0.4" d="M19.5 10.28V17.43C19.47 20.28 18.69 21 15.72 21H6.28003C3.26003 21 2.5 20.25 2.5 17.27V10.28C2.5 7.58005 3.13 6.71005 5.5 6.57005C5.74 6.56005 6.00003 6.55005 6.28003 6.55005H15.72C18.74 6.55005 19.5 7.30005 19.5 10.28Z" fill="#4C95FF"/>
<path d="M22.5 6.73V13.72C22.5 16.42 21.87 17.29 19.5 17.43V10.28C19.5 7.3 18.74 6.55 15.72 6.55H6.28003C6.00003 6.55 5.74 6.56 5.5 6.57C5.53 3.72 6.31003 3 9.28003 3H18.72C21.74 3 22.5 3.75 22.5 6.73Z" fill="#4C95FF"/>
<path d="M7.46002 18.5601H5.73999C5.32999 18.5601 4.98999 18.2201 4.98999 17.8101C4.98999 17.4001 5.32999 17.0601 5.73999 17.0601H7.46002C7.87002 17.0601 8.21002 17.4001 8.21002 17.8101C8.21002 18.2201 7.88002 18.5601 7.46002 18.5601Z" fill="#4C95FF"/>
<path d="M13.05 18.5601H9.60999C9.19999 18.5601 8.85999 18.2201 8.85999 17.8101C8.85999 17.4001 9.19999 17.0601 9.60999 17.0601H13.05C13.46 17.0601 13.8 17.4001 13.8 17.8101C13.8 18.2201 13.47 18.5601 13.05 18.5601Z" fill="#4C95FF"/>
<path d="M19.5 11.8601H2.5V13.3601H19.5V11.8601Z" fill="#4C95FF"/>
</svg>
